# xmcd
#
# Track frame offsets: 
#        150
#        16307
#        31472
#        44535
#        61627
#        74727
#        91920
#        104595
#        118970
#        129745
#        142250
#        153775
#        167702
#        175680
#        189520
#        206932
#
# Disc length: 2785 seconds
#
# Revision: 0
# Processed by: cddbd v1.5PL3 Copyright (c) Steve Scherf et al.
# Submitted via: ExactAudioCopy v0.90b3
#
DISCID=ed0adf10
DTITLE=Johnny Horton - Live Recordings From the Louisiana Hayride
DYEAR=2004
DGENRE=Country
TTITLE0=Honky Tonk Man
TTITLE1=Rock Island Line
TTITLE2=One Woman Man
TTITLE3=John Henry
TTITLE4=Honky Tonk Hardwood Floor
TTITLE5=My Bucket's Got A Hole In It
TTITLE6=Jambalaya
TTITLE7=All For The Love Of A Girl
TTITLE8=Johnny Reb
TTITLE9=Same Old Tale The Crow Told Me
TTITLE10=Battle Of New Orleans
TTITLE11=When It's Springtime In Alaska
TTITLE12=Sal's Got A Sugar Lip
TTITLE13=Sink The Bismark
TTITLE14=Whispering Pines
TTITLE15=Johnny Horton For Wray Ford
EXTD=
EXTT0=
EXTT1=
EXTT2=
EXTT3=
EXTT4=
EXTT5=
EXTT6=
EXTT7=
EXTT8=
EXTT9=
EXTT10=
EXTT11=
EXTT12=
EXTT13=
EXTT14=
EXTT15=
PLAYORDER=
